<svg width="66" height="44" viewBox="0 0 66 44" fill="none" xmlns="http://www.w3.org/2000/svg">
<path d="M47.5 37C57.7173 37 66 28.7173 66 18.5C66 8.28273 57.7173 0 47.5 0C37.2827 0 29 8.28273 29 18.5C29 28.7173 37.2827 37 47.5 37Z" fill="#48484A"/>
<path d="M11.5 44C17.8513 44 23 39.0751 23 33C23 26.9249 17.8513 22 11.5 22C5.14873 22 0 26.9249 0 33C0 39.0751 5.14873 44 11.5 44Z" fill="#F2F2F1"/>
<path d="M47.5 44C53.8513 44 59 39.0751 59 33C59 26.9249 53.8513 22 47.5 22C41.1487 22 36 26.9249 36 33C36 39.0751 41.1487 44 47.5 44Z" fill="#F2F2F1"/>
<path d="M38 19C38 12.3726 32.6274 7 26 7C19.3726 7 14 12.3726 14 19V32C14 38.6274 19.3726 44 26 44C32.6274 44 38 38.6274 38 32V19Z" fill="#F2F2F1"/>
<path d="M50 22C50 18.134 46.866 15 43 15C39.134 15 36 18.134 36 22V37C36 40.866 39.134 44 43 44C46.866 44 50 40.866 50 37V22Z" fill="#F2F2F1"/>
<path d="M50 26H13C8.02944 26 4 30.0294 4 35C4 39.9706 8.02944 44 13 44H50C54.9706 44 59 39.9706 59 35C59 30.0294 54.9706 26 50 26Z" fill="#F2F2F1"/>
</svg>
