<svg width="52" height="48" viewBox="0 0 52 48" fill="none" xmlns="http://www.w3.org/2000/svg">
<path d="M38 28C45.732 28 52 21.732 52 14C52 6.26801 45.732 0 38 0C30.268 0 24 6.26801 24 14C24 21.732 30.268 28 38 28Z" fill="#EC6E4C"/>
<ellipse cx="8.96839" cy="24.5503" rx="8.96839" ry="8.57846" fill="#F2F2F1"/>
<ellipse cx="37.0434" cy="24.5503" rx="8.96839" ry="8.57846" fill="#F2F2F1"/>
<rect x="10.9181" y="4.27396" width="18.7166" height="28.8548" rx="9.35832" fill="#F2F2F1"/>
<rect x="28.075" y="10.5128" width="10.918" height="22.6159" rx="5.45902" fill="#F2F2F1"/>
<rect x="3.11945" y="19.0913" width="42.8923" height="14.0375" rx="7.01874" fill="#F2F2F1"/>
<rect x="14.9168" y="27.8661" width="2.88858" height="5.77717" rx="1.44429" transform="rotate(33.2021 14.9168 27.8661)" fill="#48484A"/>
<rect x="11.9075" y="36.9463" width="2.8163" height="5.63259" rx="1.40815" transform="rotate(33.2021 11.9075 36.9463)" fill="#48484A"/>
<rect x="20.9178" y="34.8575" width="2.61864" height="5.79252" rx="1.30932" transform="rotate(33.2021 20.9178 34.8575)" fill="#48484A"/>
<rect x="16.2868" y="42.6103" width="2.52527" height="3.43729" rx="1.26263" transform="rotate(33.2021 16.2868 42.6103)" fill="#48484A"/>
<rect x="27.8822" y="35" width="2.52527" height="3.43729" rx="1.26263" transform="rotate(33.2021 27.8822 35)" fill="#48484A"/>
<rect x="26.9719" y="40.3929" width="2.90009" height="6.26215" rx="1.45005" transform="rotate(33.2021 26.9719 40.3929)" fill="#48484A"/>
</svg>
