<svg width="66" height="60" viewBox="0 0 66 60" fill="none" xmlns="http://www.w3.org/2000/svg">
<path d="M25.6297 31.5C30.9322 31.5 35.2308 27.3373 35.2308 22.2024C35.2308 17.0676 30.9322 12.9049 25.6297 12.9049C20.3271 12.9049 16.0286 17.0676 16.0286 22.2024C16.0286 27.3373 20.3271 31.5 25.6297 31.5Z" fill="#48484A"/>
<path d="M55.6853 31.5C60.9879 31.5 65.2865 27.3373 65.2865 22.2024C65.2865 17.0676 60.9879 12.9049 55.6853 12.9049C50.3828 12.9049 46.0842 17.0676 46.0842 22.2024C46.0842 27.3373 50.3828 31.5 55.6853 31.5Z" fill="#48484A"/>
<path d="M37.7355 0.226501H37.7354C32.2023 0.226501 27.7169 4.76755 27.7169 10.3692V21.3573C27.7169 26.9589 32.2023 31.5 37.7354 31.5H37.7355C43.2686 31.5 47.754 26.9589 47.754 21.3573V10.3692C47.754 4.76755 43.2686 0.226501 37.7355 0.226501Z" fill="#48484A"/>
<path d="M57.7725 12.905C57.7725 9.6373 55.156 6.98834 51.9284 6.98834C48.7007 6.98834 46.0842 9.6373 46.0842 12.905V25.5834C46.0842 28.8511 48.7007 31.5 51.9284 31.5C55.156 31.5 57.7725 28.8511 57.7725 25.5834V12.905Z" fill="#48484A"/>
<path d="M57.7725 16.2859H26.882C22.7322 16.2859 19.3681 19.6917 19.3681 23.8929C19.3681 28.0942 22.7322 31.5 26.882 31.5H57.7725C61.9223 31.5 65.2864 28.0942 65.2864 23.8929C65.2864 19.6917 61.9223 16.2859 57.7725 16.2859Z" fill="#48484A"/>
<ellipse cx="10.7621" cy="31.8603" rx="10.7621" ry="10.2941" fill="#F2F2F1"/>
<ellipse cx="44.452" cy="31.8603" rx="10.7621" ry="10.2941" fill="#F2F2F1"/>
<rect x="13.1017" y="7.52875" width="22.46" height="34.6258" rx="11.23" fill="#F2F2F1"/>
<rect x="33.69" y="15.0154" width="13.1016" height="27.1391" rx="6.55082" fill="#F2F2F1"/>
<rect x="3.74335" y="25.3095" width="51.4707" height="16.845" rx="8.42249" fill="#F2F2F1"/>
<ellipse cx="10.7621" cy="31.8603" rx="10.7621" ry="10.2941" fill="#F2F2F1"/>
<ellipse cx="44.452" cy="31.8603" rx="10.7621" ry="10.2941" fill="#F2F2F1"/>
<rect x="13.1017" y="7.52875" width="22.46" height="34.6258" rx="11.23" fill="#F2F2F1"/>
<rect x="33.69" y="15.0154" width="13.1016" height="27.1391" rx="6.55082" fill="#F2F2F1"/>
<rect x="3.74335" y="25.3095" width="51.4707" height="16.845" rx="8.42249" fill="#F2F2F1"/>
<path d="M21.2 32.1467L29 32.1467L21.2 45.3466L14 45.3466L21.2 32.1467Z" fill="#EB4D23"/>
<path d="M20.6 41.1467L27.8 41.1467L20.6 48.9467L16.4 53.1467L18.2 48.9467L20 44.7467L20.6 41.1467Z" fill="#EB4D23"/>
<path d="M21.6497 32.9526L27.8652 32.9526L20.6935 45.3834L14.9562 45.3834L21.6497 32.9526Z" fill="#EC6E4C"/>
<path d="M21.0326 41.6687L27.3871 41.6687L14 56.6428L21.0326 41.6687Z" fill="#EC6E4C"/>
</svg>
