<svg width="38" height="44" viewBox="0 0 38 44" fill="none" xmlns="http://www.w3.org/2000/svg">
<path d="M37.1718 30.5875L31.5249 27.2754L36.5674 26.388C37.0632 26.2698 37.4672 25.9426 37.7089 25.5174C37.9193 25.1473 38.0063 24.7029 37.923 24.2584C37.744 23.3032 36.8469 22.7081 35.9194 22.9292L28.6737 25.6031L21.7069 22L28.6738 18.397L35.9195 21.0709C36.8471 21.292 37.7442 20.6969 37.9231 19.7417C38.1021 18.7865 37.4951 17.8331 36.5675 17.6121L31.5251 16.7246L37.1719 13.4126C37.9811 12.938 38.2419 11.8578 37.7544 11C37.2668 10.1422 36.2157 9.83159 35.4065 10.3061L29.7596 13.6182L31.5243 8.73804C31.7997 7.81146 31.2904 6.80084 30.3866 6.48063C29.4829 6.16052 28.5272 6.65225 28.2518 7.57883L26.9084 15.2904L20.7654 18.8934V11.6875L26.6677 6.64976C27.3199 5.94421 27.2612 4.85745 26.5364 4.22245C25.8116 3.58729 24.6954 3.6447 24.0432 4.35016L20.7653 8.34281V1.71875C20.7653 0.769484 19.975 0 19 0C18.0249 0 17.2346 0.769484 17.2346 1.71875V8.34281L13.9567 4.35016C13.3046 3.64461 12.1883 3.58737 11.4635 4.22245C10.7388 4.85745 10.6801 5.94421 11.3323 6.64976L17.2346 11.6875V18.8936L11.0916 15.2906L9.74816 7.57891C9.47275 6.65234 8.51698 6.1606 7.6133 6.48072C6.70944 6.80084 6.20026 7.81155 6.47559 8.73813L8.2403 13.6183L2.59349 10.3062C1.7843 9.83159 0.733105 10.1423 0.245638 11.0001C-0.24183 11.8579 0.0189103 12.9381 0.828105 13.4127L6.475 16.7247L1.43246 17.6123C0.504936 17.8333 -0.10196 18.7867 0.0769281 19.7419C0.255901 20.697 1.15297 21.292 2.08058 21.071L9.32618 18.3971L16.293 22L9.32609 25.603L2.08041 22.9291C1.1528 22.708 0.255816 23.3031 0.0767584 24.2582C-0.10213 25.2132 0.504766 26.1668 1.43229 26.3878L6.47483 27.2754L0.827936 30.5874C0.0189103 31.062 -0.241915 32.1422 0.245638 33C0.73319 33.8578 1.7843 34.1685 2.59349 33.6939L8.24038 30.3818L6.47568 35.2619C6.32851 35.7572 6.40544 36.2764 6.64701 36.7014C6.85737 37.0715 7.19267 37.3704 7.6133 37.5193C8.51707 37.8394 9.47283 37.3477 9.74816 36.4211L11.0916 28.7094L17.2346 25.1064V32.3125L11.3323 37.3502C10.68 38.0558 10.7388 39.1425 11.4635 39.7775C12.1882 40.4125 13.3046 40.3553 13.9567 39.6498L17.2346 35.6571V42.2812C17.2346 43.2305 18.0249 44 19 44C19.975 44 20.7653 43.2305 20.7653 42.2812V35.6571L24.0432 39.6498C24.3919 40.0269 24.8729 40.2188 25.356 40.2188C25.7768 40.2188 26.1991 40.0732 26.5364 39.7775C27.2612 39.1425 27.3199 38.0558 26.6677 37.3502L20.7653 32.3125V25.1064L26.9084 28.7094L28.2518 36.4211C28.5271 37.3477 29.4829 37.8394 30.3865 37.5193C31.2901 37.1991 31.7996 36.1884 31.5242 35.2619L29.7595 30.3817L35.4063 33.6938C36.2155 34.1684 37.2667 33.8577 37.7542 32.9999C38.2418 32.1422 37.9811 31.062 37.1718 30.5875V30.5875Z" fill="#48484A"/>
</svg>
