<svg width="55" height="50" viewBox="0 0 55 50" fill="none" xmlns="http://www.w3.org/2000/svg">
<path d="M21.3581 26.25C25.7769 26.25 29.359 22.7811 29.359 18.502C29.359 14.223 25.7769 10.7541 21.3581 10.7541C16.9393 10.7541 13.3571 14.223 13.3571 18.502C13.3571 22.7811 16.9393 26.25 21.3581 26.25Z" fill="#48484A"/>
<path d="M46.4044 26.25C50.8232 26.25 54.4054 22.7811 54.4054 18.502C54.4054 14.223 50.8232 10.7541 46.4044 10.7541C41.9856 10.7541 38.4035 14.223 38.4035 18.502C38.4035 22.7811 41.9856 26.25 46.4044 26.25Z" fill="#48484A"/>
<path d="M31.4463 0.188751H31.4462C26.8353 0.188751 23.0974 3.97296 23.0974 8.64101V17.7977C23.0974 22.4658 26.8353 26.25 31.4462 26.25H31.4463C36.0571 26.25 39.795 22.4658 39.795 17.7977V8.64101C39.795 3.97296 36.0571 0.188751 31.4463 0.188751Z" fill="#48484A"/>
<path d="M48.1438 10.7541C48.1438 8.03107 45.9633 5.82361 43.2736 5.82361C40.5839 5.82361 38.4035 8.03107 38.4035 10.7541V21.3195C38.4035 24.0425 40.5839 26.25 43.2736 26.25C45.9633 26.25 48.1438 24.0425 48.1438 21.3195V10.7541Z" fill="#48484A"/>
<path d="M48.1438 13.5716H22.4017C18.9435 13.5716 16.1401 16.4097 16.1401 19.9108C16.1401 23.4118 18.9435 26.25 22.4017 26.25H48.1438C51.602 26.25 54.4054 23.4118 54.4054 19.9108C54.4054 16.4097 51.602 13.5716 48.1438 13.5716Z" fill="#48484A"/>
<ellipse cx="8.96839" cy="26.5503" rx="8.96839" ry="8.57846" fill="#F2F2F1"/>
<ellipse cx="37.0434" cy="26.5503" rx="8.96839" ry="8.57846" fill="#F2F2F1"/>
<rect x="10.9181" y="6.27396" width="18.7166" height="28.8548" rx="9.35832" fill="#F2F2F1"/>
<rect x="28.075" y="12.5128" width="10.918" height="22.6159" rx="5.45902" fill="#F2F2F1"/>
<rect x="3.11945" y="21.0913" width="42.8923" height="14.0375" rx="7.01874" fill="#F2F2F1"/>
<ellipse cx="8.96839" cy="26.5503" rx="8.96839" ry="8.57846" fill="#F2F2F1"/>
<ellipse cx="37.0434" cy="26.5503" rx="8.96839" ry="8.57846" fill="#F2F2F1"/>
<rect x="10.9181" y="6.27396" width="18.7166" height="28.8548" rx="9.35832" fill="#F2F2F1"/>
<rect x="28.075" y="12.5128" width="10.918" height="22.6159" rx="5.45902" fill="#F2F2F1"/>
<rect x="3.11945" y="21.0913" width="42.8923" height="14.0375" rx="7.01874" fill="#F2F2F1"/>
<rect x="14.9168" y="29.8661" width="2.88858" height="5.77717" rx="1.44429" transform="rotate(33.2021 14.9168 29.8661)" fill="#48484A"/>
<rect x="11.9075" y="38.9463" width="2.8163" height="5.63259" rx="1.40815" transform="rotate(33.2021 11.9075 38.9463)" fill="#48484A"/>
<rect x="20.9178" y="36.8575" width="2.61864" height="5.79252" rx="1.30932" transform="rotate(33.2021 20.9178 36.8575)" fill="#48484A"/>
<rect x="16.2868" y="44.6103" width="2.52527" height="3.43729" rx="1.26263" transform="rotate(33.2021 16.2868 44.6103)" fill="#48484A"/>
<rect x="27.8822" y="37" width="2.52527" height="3.43729" rx="1.26263" transform="rotate(33.2021 27.8822 37)" fill="#48484A"/>
<rect x="26.9719" y="42.3929" width="2.90009" height="6.26215" rx="1.45005" transform="rotate(33.2021 26.9719 42.3929)" fill="#48484A"/>
</svg>
