<svg width="52" height="48" viewBox="0 0 52 48" fill="none" xmlns="http://www.w3.org/2000/svg">
<path d="M38 28C45.732 28 52 21.732 52 14C52 6.26801 45.732 0 38 0C30.268 0 24 6.26801 24 14C24 21.732 30.268 28 38 28Z" fill="#48484A"/>
<path d="M8.96839 33.1288C13.9215 33.1288 17.9368 29.288 17.9368 24.5503C17.9368 19.8125 13.9215 15.9718 8.96839 15.9718C4.01529 15.9718 0 19.8125 0 24.5503C0 29.288 4.01529 33.1288 8.96839 33.1288Z" fill="#F2F2F1"/>
<path d="M37.0434 33.1288C41.9965 33.1288 46.0118 29.288 46.0118 24.5503C46.0118 19.8125 41.9965 15.9718 37.0434 15.9718C32.0903 15.9718 28.075 19.8125 28.075 24.5503C28.075 29.288 32.0903 33.1288 37.0434 33.1288Z" fill="#F2F2F1"/>
<path d="M29.6347 13.6323C29.6347 8.46382 25.4449 4.27396 20.2764 4.27396C15.108 4.27396 10.9181 8.46382 10.9181 13.6323V23.7704C10.9181 28.9389 15.108 33.1288 20.2764 33.1288C25.4449 33.1288 29.6347 28.9389 29.6347 23.7704V13.6323Z" fill="#F2F2F1"/>
<path d="M38.993 15.9718C38.993 12.9569 36.5489 10.5128 33.534 10.5128C30.5191 10.5128 28.075 12.9569 28.075 15.9718V27.6697C28.075 30.6846 30.5191 33.1287 33.534 33.1287C36.5489 33.1287 38.993 30.6846 38.993 27.6697V15.9718Z" fill="#F2F2F1"/>
<path d="M38.993 19.0913H10.1382C6.26184 19.0913 3.11945 22.2337 3.11945 26.1101V26.1101C3.11945 29.9864 6.26184 33.1288 10.1382 33.1288H38.993C42.8694 33.1288 46.0117 29.9864 46.0117 26.1101C46.0117 22.2337 42.8694 19.0913 38.993 19.0913Z" fill="#F2F2F1"/>
<path d="M16.5429 30.6564C16.9797 29.9889 16.7927 29.0938 16.1253 28.657C15.4579 28.2202 14.5627 28.4072 14.1259 29.0746L12.5441 31.4916C12.1073 32.159 12.2943 33.0542 12.9618 33.491C13.6292 33.9278 14.5243 33.7408 14.9611 33.0734L16.5429 30.6564Z" fill="#48484A"/>
<path d="M13.4929 39.6667C13.9188 39.016 13.7365 38.1432 13.0858 37.7174C12.435 37.2915 11.5623 37.4738 11.1364 38.1246L9.59422 40.4811C9.16836 41.1318 9.35065 42.0046 10.0014 42.4304C10.6521 42.8563 11.5249 42.674 11.9507 42.0233L13.4929 39.6667Z" fill="#48484A"/>
<path d="M22.392 37.387C22.7879 36.7819 22.6184 35.9704 22.0134 35.5745C21.4083 35.1785 20.5968 35.348 20.2008 35.9531L18.4628 38.6088C18.0669 39.2138 18.2364 40.0253 18.8414 40.4213C19.4465 40.8173 20.258 40.6478 20.654 40.0427L22.392 37.387Z" fill="#48484A"/>
<path d="M17.3433 43.3017L17.3433 43.3017C16.7598 42.9198 15.9772 43.0833 15.5954 43.6668L15.096 44.4299C14.7141 45.0134 14.8776 45.796 15.4611 46.1778L15.4611 46.1778C16.0446 46.5597 16.8271 46.3962 17.209 45.8128L17.7084 45.0496C18.0903 44.4661 17.9268 43.6836 17.3433 43.3017Z" fill="#48484A"/>
<path d="M28.9387 35.6914L28.9387 35.6914C28.3552 35.3096 27.5726 35.473 27.1908 36.0565L26.6914 36.8196C26.3095 37.4031 26.473 38.1857 27.0565 38.5675L27.0565 38.5675C27.64 38.9494 28.4225 38.7859 28.8044 38.2025L29.3038 37.4393C29.6857 36.8558 29.5222 36.0733 28.9387 35.6914Z" fill="#48484A"/>
<path d="M28.6045 43.1943C29.043 42.5242 28.8553 41.6255 28.1852 41.1869C27.5151 40.7484 26.6164 40.9361 26.1779 41.6062L24.3368 44.4194C23.8983 45.0895 24.086 45.9882 24.7561 46.4267C25.4262 46.8653 26.3249 46.6776 26.7634 46.0075L28.6045 43.1943Z" fill="#48484A"/>
</svg>
